<?xml version="1.0" encoding="UTF-8"?>
<svg xmlns="http://www.w3.org/2000/svg" viewBox="0 -70.866 340.157 340.157" aria-label="D'Amico &amp; Partners">
<style>
  .logo { fill: #444141; }
  @media (prefers-color-scheme: dark) { .logo { fill: #FFFFFF; } }
</style>
<path class="logo" d="M 230.410156 153.917969 L 230.410156 113.855469 C 227.457031 116.445312 221.9375 121.882812 215.605469 128.113281 C 211.882812 131.78125 207.878906 135.722656 203.808594 139.671875 L 203.808594 151.023438 C 203.808594 161.195312 202.546875 167.703125 200.027344 170.546875 C 197.503906 173.394531 191.160156 175.253906 180.988281 176.136719 L 180.988281 180.722656 L 255.710938 180.722656 L 255.710938 176.136719 C 245.015625 175.414062 238.125 173.855469 235.039062 171.453125 C 231.953125 169.050781 230.410156 163.207031 230.410156 153.917969 "/>
<path class="logo" d="M 321.914062 95.851562 C 318.625 93.792969 315.167969 91.660156 311.808594 89.632812 C 318.136719 82.433594 321.300781 73.035156 321.300781 61.429688 C 321.300781 48.148438 315.304688 37.441406 303.304688 29.3125 C 291.308594 21.183594 274.007812 17.117188 251.40625 17.117188 L 180.988281 17.117188 L 180.988281 21.703125 C 190.550781 22.429688 196.742188 24.160156 199.570312 26.898438 C 202.394531 29.632812 203.808594 35.308594 203.808594 43.921875 L 203.808594 81.964844 C 208.617188 78.339844 211.710938 76.5 214.554688 74.804688 L 215.320312 74.347656 C 216.902344 73.230469 222.066406 69.871094 230.410156 67.132812 L 230.410156 34.503906 C 230.410156 31.042969 231.039062 28.808594 232.300781 27.800781 C 233.5625 26.796875 236.929688 26.292969 242.40625 26.292969 C 253.96875 26.292969 263.53125 27.824219 271.097656 30.882812 C 285.179688 36.515625 292.222656 46.902344 292.222656 62.03125 C 292.222656 68.085938 291.316406 73.417969 289.511719 78.023438 C 288.261719 77.566406 287.003906 77.132812 285.742188 76.734375 C 243.707031 63.09375 219.8125 81.488281 219.8125 81.488281 C 215.128906 84.296875 210.671875 86.6875 198.773438 96.875 C 177.78125 114.847656 138.1875 153.226562 124.667969 160.96875 C 115.367188 166.296875 105.6875 170.382812 94.59375 171.128906 C 91.667969 171.324219 89.28125 171.429688 87.703125 171.484375 C 86.636719 171.507812 85.574219 171.535156 84.484375 171.539062 L 83.242188 171.539062 C 76.964844 171.492188 72.777344 170.855469 70.730469 169.613281 C 68.597656 168.324219 67.535156 165.667969 67.535156 161.640625 L 67.535156 35.839844 C 67.535156 31.730469 68.597656 29.074219 70.730469 27.863281 C 72.859375 26.65625 76.921875 26.050781 82.921875 26.050781 C 107 26.050781 126.34375 31.53125 140.949219 42.484375 C 157.988281 55.296875 166.511719 74.390625 166.511719 99.765625 C 166.511719 105.382812 166.101562 110.667969 165.292969 115.636719 C 166.078125 114.921875 166.855469 114.210938 167.625 113.511719 C 177.242188 104.746094 186.324219 96.46875 193.441406 90.378906 C 194.089844 89.824219 194.707031 89.300781 195.3125 88.789062 C 192.40625 60.269531 177.46875 40.078125 150.46875 28.226562 C 133.691406 20.820312 113.175781 17.117188 88.917969 17.117188 L 16.9375 17.117188 L 16.9375 21.703125 C 26.847656 22.351562 33.238281 23.960938 36.105469 26.535156 C 38.976562 29.113281 40.410156 34.90625 40.410156 43.921875 L 40.410156 153.917969 C 40.410156 163.207031 38.929688 168.992188 35.976562 171.273438 C 33.019531 173.554688 26.671875 175.175781 16.9375 176.136719 L 16.9375 180.722656 L 77.78125 180.722656 L 77.773438 180.734375 L 104.34375 180.734375 C 138.410156 180.734375 154.105469 171.386719 172.714844 156.59375 C 189.414062 143.316406 217.71875 113.542969 225.734375 106.792969 C 234.085938 99.757812 250.722656 87.902344 272.015625 84.871094 C 277.648438 84.066406 282.292969 83.925781 286.257812 84.191406 C 283.105469 88.792969 278.707031 92.398438 273.050781 94.996094 C 267.714844 97.4375 260.882812 98.949219 252.550781 99.539062 C 246.191406 102.488281 240.726562 105.957031 236.441406 109.085938 C 237.640625 109.113281 238.945312 109.144531 240.386719 109.183594 C 244.863281 109.304688 248.535156 109.363281 251.40625 109.363281 C 271.398438 109.363281 288.050781 105.582031 301.351562 98.015625 C 304.570312 96.183594 307.390625 94.074219 309.828125 91.703125 C 313.113281 93.375 316.367188 95.191406 320.96875 97.550781 C 322.0625 98.109375 322.960938 96.507812 321.914062 95.851562 "/>
<path fill="#00ADEF" d="M 196.324219 34.105469 C 192.828125 31.960938 189.066406 29.996094 185.03125 28.222656 C 171.1875 22.117188 154.796875 18.53125 135.863281 17.464844 C 144.40625 19.277344 152.269531 21.761719 159.445312 24.925781 C 176.609375 32.460938 188.898438 43.367188 196.324219 57.640625 Z M 196.324219 34.105469 "/>
</svg>
